# xmcd CD database file
#
# Track frame offsets:
#	150
#	83482
#	108947
#	154435
#	172752
#	179955
#	225525
#	237420
#	249385
#	289435
#
# Disc length: 4085 seconds
#
# Revision: 0
# Processed by: cddbd v1.5.1PL2 Copyright (c) Steve Scherf et al.
# Submitted via: CDex 1.51
#
DISCID=820ff30a
DTITLE=Terje Rypdal - Vossabrygg
DYEAR=2006
DGENRE=Jazz
TTITLE0=Ghostdancing
TTITLE1=Hidden Chapter
TTITLE2=Waltz for broken Hearts - Makes you wonder
TTITLE3=Incognito Traveller
TTITLE4=Key Witness
TTITLE5=That's more like it
TTITLE6=De Slagferdige
TTITLE7=Jungeltelegrafen
TTITLE8=You're making it personal
TTITLE9=A Quiet World
EXTD=YEAR: 2006
EXTT0=
EXTT1=
EXTT2=
EXTT3=
EXTT4=
EXTT5=
EXTT6=
EXTT7=
EXTT8=
EXTT9=
PLAYORDER=
